<svg width="800" height="300" viewBox="0 0 800 300" fill="none" xmlns="http://www.w3.org/2000/svg">
<path d="M220.321 114.273H239.284L259.312 163.136H260.165L280.193 114.273H299.156V187H284.241V139.663H283.638L264.817 186.645H254.661L235.839 139.486H235.236V187H220.321V114.273ZM320.88 207.455C318.963 207.455 317.163 207.301 315.483 206.993C313.825 206.709 312.452 206.342 311.363 205.892L314.772 194.599C316.548 195.144 318.146 195.44 319.566 195.487C321.011 195.535 322.253 195.203 323.295 194.493C324.36 193.783 325.225 192.575 325.887 190.871L326.775 188.562L307.208 132.455H323.118L334.41 172.511H334.978L346.377 132.455H362.393L341.193 192.895C340.175 195.83 338.79 198.387 337.038 200.565C335.31 202.767 333.12 204.46 330.468 205.643C327.817 206.851 324.621 207.455 320.88 207.455Z" fill="#1876F2" fill-opacity="0.3"/>
<path d="M370.419 187V114.273H399.538C404.888 114.273 409.351 115.066 412.926 116.652C416.501 118.238 419.188 120.44 420.987 123.257C422.786 126.051 423.686 129.27 423.686 132.916C423.686 135.757 423.118 138.255 421.981 140.409C420.845 142.54 419.282 144.292 417.294 145.665C415.329 147.014 413.08 147.973 410.547 148.541V149.251C413.316 149.37 415.909 150.151 418.324 151.595C420.762 153.039 422.739 155.063 424.254 157.668C425.769 160.248 426.527 163.326 426.527 166.901C426.527 170.759 425.568 174.204 423.65 177.234C421.756 180.241 418.951 182.62 415.234 184.372C411.517 186.124 406.936 187 401.491 187H370.419ZM385.795 174.429H398.331C402.616 174.429 405.741 173.612 407.706 171.979C409.671 170.321 410.653 168.12 410.653 165.374C410.653 163.361 410.168 161.586 409.197 160.047C408.226 158.508 406.842 157.301 405.042 156.425C403.267 155.549 401.148 155.111 398.686 155.111H385.795V174.429ZM385.795 144.706H397.194C399.301 144.706 401.172 144.339 402.805 143.605C404.462 142.848 405.764 141.782 406.711 140.409C407.682 139.036 408.167 137.391 408.167 135.473C408.167 132.845 407.232 130.726 405.362 129.116C403.515 127.507 400.887 126.702 397.478 126.702H385.795V144.706ZM471.227 163.776V132.455H486.354V187H471.83V177.092H471.262C470.031 180.288 467.983 182.857 465.119 184.798C462.278 186.74 458.809 187.71 454.714 187.71C451.068 187.71 447.86 186.882 445.09 185.224C442.32 183.567 440.154 181.212 438.592 178.158C437.053 175.104 436.272 171.446 436.248 167.185V132.455H451.376V164.486C451.399 167.705 452.263 170.25 453.968 172.121C455.673 173.991 457.957 174.926 460.822 174.926C462.645 174.926 464.349 174.512 465.935 173.683C467.522 172.831 468.8 171.576 469.771 169.919C470.765 168.262 471.25 166.214 471.227 163.776ZM518.554 187.888C514.411 187.888 510.659 186.822 507.297 184.692C503.959 182.537 501.308 179.377 499.343 175.21C497.401 171.02 496.431 165.883 496.431 159.798C496.431 153.548 497.437 148.352 499.449 144.209C501.462 140.042 504.137 136.929 507.475 134.869C510.837 132.786 514.518 131.744 518.519 131.744C521.573 131.744 524.118 132.265 526.154 133.307C528.213 134.325 529.871 135.603 531.125 137.142C532.404 138.657 533.374 140.149 534.037 141.616H534.499V114.273H549.591V187H534.676V178.264H534.037C533.327 179.779 532.321 181.283 531.019 182.774C529.74 184.242 528.071 185.461 526.012 186.432C523.976 187.402 521.49 187.888 518.554 187.888ZM523.348 175.849C525.787 175.849 527.846 175.187 529.527 173.861C531.232 172.511 532.534 170.629 533.434 168.214C534.357 165.8 534.819 162.971 534.819 159.727C534.819 156.484 534.369 153.667 533.469 151.276C532.569 148.884 531.267 147.038 529.563 145.736C527.858 144.434 525.787 143.783 523.348 143.783C520.863 143.783 518.767 144.457 517.063 145.807C515.358 147.156 514.068 149.027 513.192 151.418C512.316 153.809 511.878 156.579 511.878 159.727C511.878 162.9 512.316 165.705 513.192 168.143C514.092 170.558 515.382 172.452 517.063 173.825C518.767 175.175 520.863 175.849 523.348 175.849ZM586.603 208.591C581.702 208.591 577.5 207.916 573.996 206.567C570.516 205.241 567.746 203.43 565.687 201.134C563.627 198.837 562.29 196.257 561.674 193.392L575.665 191.51C576.092 192.599 576.766 193.617 577.69 194.564C578.613 195.511 579.832 196.268 581.347 196.837C582.886 197.429 584.756 197.724 586.958 197.724C590.249 197.724 592.96 196.92 595.09 195.31C597.245 193.723 598.322 191.06 598.322 187.32V177.341H597.683C597.02 178.856 596.025 180.288 594.7 181.638C593.374 182.987 591.669 184.088 589.586 184.94C587.503 185.793 585.017 186.219 582.129 186.219C578.033 186.219 574.304 185.272 570.942 183.378C567.604 181.46 564.941 178.536 562.952 174.607C560.987 170.653 560.005 165.658 560.005 159.621C560.005 153.442 561.011 148.281 563.023 144.138C565.036 139.995 567.711 136.893 571.049 134.834C574.411 132.774 578.092 131.744 582.093 131.744C585.147 131.744 587.704 132.265 589.763 133.307C591.823 134.325 593.48 135.603 594.735 137.142C596.013 138.657 596.996 140.149 597.683 141.616H598.251V132.455H613.272V187.533C613.272 192.173 612.136 196.055 609.863 199.18C607.59 202.305 604.442 204.649 600.417 206.212C596.416 207.798 591.811 208.591 586.603 208.591ZM586.923 174.855C589.361 174.855 591.421 174.251 593.102 173.044C594.806 171.813 596.108 170.061 597.008 167.788C597.931 165.492 598.393 162.746 598.393 159.55C598.393 156.354 597.943 153.584 597.043 151.24C596.144 148.873 594.842 147.038 593.137 145.736C591.433 144.434 589.361 143.783 586.923 143.783C584.437 143.783 582.342 144.457 580.637 145.807C578.933 147.133 577.642 148.979 576.766 151.347C575.89 153.714 575.452 156.448 575.452 159.55C575.452 162.698 575.89 165.421 576.766 167.717C577.666 169.99 578.956 171.754 580.637 173.009C582.342 174.24 584.437 174.855 586.923 174.855ZM650.168 188.065C644.558 188.065 639.728 186.929 635.68 184.656C631.655 182.36 628.554 179.116 626.376 174.926C624.198 170.712 623.109 165.729 623.109 159.976C623.109 154.365 624.198 149.441 626.376 145.203C628.554 140.965 631.62 137.663 635.573 135.295C639.55 132.928 644.214 131.744 649.565 131.744C653.163 131.744 656.513 132.324 659.614 133.484C662.739 134.621 665.462 136.337 667.782 138.634C670.126 140.93 671.949 143.818 673.251 147.298C674.553 150.755 675.204 154.803 675.204 159.443V163.598H629.146V154.223H660.964C660.964 152.045 660.49 150.116 659.543 148.435C658.596 146.754 657.282 145.44 655.602 144.493C653.944 143.522 652.015 143.037 649.813 143.037C647.517 143.037 645.481 143.57 643.705 144.635C641.953 145.677 640.58 147.085 639.586 148.861C638.592 150.613 638.083 152.566 638.059 154.72V163.634C638.059 166.332 638.556 168.664 639.55 170.629C640.568 172.594 642.001 174.109 643.847 175.175C645.694 176.24 647.884 176.773 650.417 176.773C652.098 176.773 653.637 176.536 655.033 176.062C656.43 175.589 657.626 174.879 658.62 173.932C659.614 172.985 660.372 171.825 660.893 170.452L674.884 171.375C674.174 174.737 672.718 177.672 670.516 180.182C668.338 182.668 665.521 184.609 662.065 186.006C658.632 187.379 654.666 188.065 650.168 188.065ZM714.089 132.455V143.818H681.241V132.455H714.089ZM688.698 119.386H703.826V170.239C703.826 171.635 704.039 172.724 704.465 173.506C704.891 174.263 705.483 174.796 706.241 175.104C707.022 175.411 707.922 175.565 708.94 175.565C709.65 175.565 710.36 175.506 711.07 175.388C711.781 175.246 712.325 175.139 712.704 175.068L715.083 186.325C714.326 186.562 713.26 186.834 711.887 187.142C710.514 187.473 708.845 187.675 706.88 187.746C703.234 187.888 700.038 187.402 697.292 186.29C694.569 185.177 692.451 183.449 690.935 181.105C689.42 178.761 688.674 175.802 688.698 172.227V119.386Z" fill="#1876F2"/>
<path d="M131.5 101C121.908 101 112.531 103.844 104.555 109.174C96.5791 114.503 90.3627 122.078 86.6919 130.94C83.021 139.802 82.0606 149.554 83.9319 158.962C85.8033 168.37 90.4225 177.012 97.2053 183.795C103.988 190.577 112.63 195.197 122.038 197.068C131.446 198.939 141.198 197.979 150.06 194.308C158.922 190.637 166.497 184.421 171.826 176.445C177.156 168.469 180 159.092 180 149.5C180 143.131 178.746 136.824 176.308 130.94C173.871 125.056 170.298 119.709 165.795 115.205C161.291 110.702 155.944 107.129 150.06 104.692C144.176 102.254 137.869 101 131.5 101ZM149.494 148.093C148.585 148.997 147.356 149.504 146.074 149.504C144.793 149.504 143.564 148.997 142.655 148.093L136.35 141.788V168.9C136.35 170.186 135.839 171.42 134.929 172.329C134.02 173.239 132.786 173.75 131.5 173.75C130.214 173.75 128.98 173.239 128.071 172.329C127.161 171.42 126.65 170.186 126.65 168.9V141.788L120.394 148.093C119.466 148.888 118.272 149.303 117.052 149.256C115.831 149.209 114.673 148.703 113.809 147.839C112.946 146.975 112.44 145.818 112.392 144.597C112.345 143.376 112.76 142.183 113.555 141.255L128.105 126.705C129.014 125.802 130.243 125.295 131.524 125.295C132.806 125.295 134.035 125.802 134.944 126.705L149.494 141.255C150.397 142.164 150.904 143.393 150.904 144.674C150.904 145.956 150.397 147.185 149.494 148.093Z" fill="#1876F1"/>
</svg>
