<svg width="800" height="300" viewBox="0 0 800 300" fill="none" xmlns="http://www.w3.org/2000/svg">
<path d="M251.321 114.273H270.284L290.312 163.136H291.165L311.193 114.273H330.156V187H315.241V139.663H314.638L295.817 186.645H285.661L266.839 139.486H266.236V187H251.321V114.273ZM351.88 207.455C349.963 207.455 348.163 207.301 346.483 206.993C344.825 206.709 343.452 206.342 342.363 205.892L345.772 194.599C347.548 195.144 349.146 195.44 350.566 195.487C352.011 195.535 353.253 195.203 354.295 194.493C355.36 193.783 356.225 192.575 356.887 190.871L357.775 188.562L338.208 132.455H354.118L365.41 172.511H365.978L377.377 132.455H393.393L372.193 192.895C371.175 195.83 369.79 198.387 368.038 200.565C366.31 202.767 364.12 204.46 361.468 205.643C358.817 206.851 355.621 207.455 351.88 207.455ZM401.419 187V114.273H430.538C435.888 114.273 440.351 115.066 443.926 116.652C447.501 118.238 450.188 120.44 451.987 123.257C453.786 126.051 454.686 129.27 454.686 132.916C454.686 135.757 454.118 138.255 452.981 140.409C451.845 142.54 450.282 144.292 448.294 145.665C446.329 147.014 444.08 147.973 441.547 148.541V149.251C444.316 149.37 446.909 150.151 449.324 151.595C451.762 153.039 453.739 155.063 455.254 157.668C456.769 160.248 457.527 163.326 457.527 166.901C457.527 170.759 456.568 174.204 454.65 177.234C452.756 180.241 449.951 182.62 446.234 184.372C442.517 186.124 437.936 187 432.491 187H401.419ZM416.795 174.429H429.331C433.616 174.429 436.741 173.612 438.706 171.979C440.671 170.321 441.653 168.12 441.653 165.374C441.653 163.361 441.168 161.586 440.197 160.047C439.226 158.508 437.842 157.301 436.042 156.425C434.267 155.549 432.148 155.111 429.686 155.111H416.795V174.429ZM416.795 144.706H428.194C430.301 144.706 432.172 144.339 433.805 143.605C435.462 142.848 436.764 141.782 437.711 140.409C438.682 139.036 439.167 137.391 439.167 135.473C439.167 132.845 438.232 130.726 436.362 129.116C434.515 127.507 431.887 126.702 428.478 126.702H416.795V144.706ZM502.227 163.776V132.455H517.354V187H502.83V177.092H502.262C501.031 180.288 498.983 182.857 496.119 184.798C493.278 186.74 489.809 187.71 485.714 187.71C482.068 187.71 478.86 186.882 476.09 185.224C473.32 183.567 471.154 181.212 469.592 178.158C468.053 175.104 467.272 171.446 467.248 167.185V132.455H482.376V164.486C482.399 167.705 483.263 170.25 484.968 172.121C486.673 173.991 488.957 174.926 491.822 174.926C493.645 174.926 495.349 174.512 496.935 173.683C498.522 172.831 499.8 171.576 500.771 169.919C501.765 168.262 502.25 166.214 502.227 163.776ZM549.554 187.888C545.411 187.888 541.659 186.822 538.297 184.692C534.959 182.537 532.308 179.377 530.343 175.21C528.401 171.02 527.431 165.883 527.431 159.798C527.431 153.548 528.437 148.352 530.449 144.209C532.462 140.042 535.137 136.929 538.475 134.869C541.837 132.786 545.518 131.744 549.519 131.744C552.573 131.744 555.118 132.265 557.154 133.307C559.213 134.325 560.871 135.603 562.125 137.142C563.404 138.657 564.374 140.149 565.037 141.616H565.499V114.273H580.591V187H565.676V178.264H565.037C564.327 179.779 563.321 181.283 562.019 182.774C560.74 184.242 559.071 185.461 557.012 186.432C554.976 187.402 552.49 187.888 549.554 187.888ZM554.348 175.849C556.787 175.849 558.846 175.187 560.527 173.861C562.232 172.511 563.534 170.629 564.434 168.214C565.357 165.8 565.819 162.971 565.819 159.727C565.819 156.484 565.369 153.667 564.469 151.276C563.569 148.884 562.267 147.038 560.563 145.736C558.858 144.434 556.787 143.783 554.348 143.783C551.863 143.783 549.767 144.457 548.063 145.807C546.358 147.156 545.068 149.027 544.192 151.418C543.316 153.809 542.878 156.579 542.878 159.727C542.878 162.9 543.316 165.705 544.192 168.143C545.092 170.558 546.382 172.452 548.063 173.825C549.767 175.175 551.863 175.849 554.348 175.849ZM617.603 208.591C612.702 208.591 608.5 207.916 604.996 206.567C601.516 205.241 598.746 203.43 596.687 201.134C594.627 198.837 593.29 196.257 592.674 193.392L606.665 191.51C607.092 192.599 607.766 193.617 608.69 194.564C609.613 195.511 610.832 196.268 612.347 196.837C613.886 197.429 615.756 197.724 617.958 197.724C621.249 197.724 623.96 196.92 626.09 195.31C628.245 193.723 629.322 191.06 629.322 187.32V177.341H628.683C628.02 178.856 627.025 180.288 625.7 181.638C624.374 182.987 622.669 184.088 620.586 184.94C618.503 185.793 616.017 186.219 613.129 186.219C609.033 186.219 605.304 185.272 601.942 183.378C598.604 181.46 595.941 178.536 593.952 174.607C591.987 170.653 591.005 165.658 591.005 159.621C591.005 153.442 592.011 148.281 594.023 144.138C596.036 139.995 598.711 136.893 602.049 134.834C605.411 132.774 609.092 131.744 613.093 131.744C616.147 131.744 618.704 132.265 620.763 133.307C622.823 134.325 624.48 135.603 625.735 137.142C627.013 138.657 627.996 140.149 628.683 141.616H629.251V132.455H644.272V187.533C644.272 192.173 643.136 196.055 640.863 199.18C638.59 202.305 635.442 204.649 631.417 206.212C627.416 207.798 622.811 208.591 617.603 208.591ZM617.923 174.855C620.361 174.855 622.421 174.251 624.102 173.044C625.806 171.813 627.108 170.061 628.008 167.788C628.931 165.492 629.393 162.746 629.393 159.55C629.393 156.354 628.943 153.584 628.043 151.24C627.144 148.873 625.842 147.038 624.137 145.736C622.433 144.434 620.361 143.783 617.923 143.783C615.437 143.783 613.342 144.457 611.637 145.807C609.933 147.133 608.642 148.979 607.766 151.347C606.89 153.714 606.452 156.448 606.452 159.55C606.452 162.698 606.89 165.421 607.766 167.717C608.666 169.99 609.956 171.754 611.637 173.009C613.342 174.24 615.437 174.855 617.923 174.855ZM681.168 188.065C675.558 188.065 670.728 186.929 666.68 184.656C662.655 182.36 659.554 179.116 657.376 174.926C655.198 170.712 654.109 165.729 654.109 159.976C654.109 154.365 655.198 149.441 657.376 145.203C659.554 140.965 662.62 137.663 666.573 135.295C670.55 132.928 675.214 131.744 680.565 131.744C684.163 131.744 687.513 132.324 690.614 133.484C693.739 134.621 696.462 136.337 698.782 138.634C701.126 140.93 702.949 143.818 704.251 147.298C705.553 150.755 706.204 154.803 706.204 159.443V163.598H660.146V154.223H691.964C691.964 152.045 691.49 150.116 690.543 148.435C689.596 146.754 688.282 145.44 686.602 144.493C684.944 143.522 683.015 143.037 680.813 143.037C678.517 143.037 676.481 143.57 674.705 144.635C672.953 145.677 671.58 147.085 670.586 148.861C669.592 150.613 669.083 152.566 669.059 154.72V163.634C669.059 166.332 669.556 168.664 670.55 170.629C671.568 172.594 673.001 174.109 674.847 175.175C676.694 176.24 678.884 176.773 681.417 176.773C683.098 176.773 684.637 176.536 686.033 176.062C687.43 175.589 688.626 174.879 689.62 173.932C690.614 172.985 691.372 171.825 691.893 170.452L705.884 171.375C705.174 174.737 703.718 177.672 701.516 180.182C699.338 182.668 696.521 184.609 693.065 186.006C689.632 187.379 685.666 188.065 681.168 188.065ZM745.089 132.455V143.818H712.241V132.455H745.089ZM719.698 119.386H734.826V170.239C734.826 171.635 735.039 172.724 735.465 173.506C735.891 174.263 736.483 174.796 737.241 175.104C738.022 175.411 738.922 175.565 739.94 175.565C740.65 175.565 741.36 175.506 742.07 175.388C742.781 175.246 743.325 175.139 743.704 175.068L746.083 186.325C745.326 186.562 744.26 186.834 742.887 187.142C741.514 187.473 739.845 187.675 737.88 187.746C734.234 187.888 731.038 187.402 728.292 186.29C725.569 185.177 723.451 183.449 721.935 181.105C720.42 178.761 719.674 175.802 719.698 172.227V119.386Z" fill="#1876F2"/>
<path fill-rule="evenodd" clip-rule="evenodd" d="M88.4711 157.534C106.405 157.534 120.942 171.964 120.942 189.767C120.942 207.569 106.406 222 88.4711 222C70.5371 222 56 207.57 56 189.767C56 171.965 70.5362 157.534 88.4711 157.534ZM191.615 163.965C184.157 189.286 160.589 207.789 132.669 207.789C130.667 207.789 128.683 207.691 126.723 207.503C129.264 202.118 130.679 196.112 130.679 189.772C130.679 180.035 127.335 171.081 121.727 163.964L191.615 163.965ZM115.407 157.51C108.096 151.492 98.7164 147.87 88.4774 147.87C82.4094 147.87 76.6475 149.14 71.4369 151.425C71.3206 149.906 71.2654 148.374 71.2654 146.824C71.2654 119.108 89.8985 95.7121 115.413 88.3101L115.407 157.51ZM132.901 78C171.06 78 202 108.713 202 146.593V154.3H125.137V78.0002L132.901 78ZM101.514 176.588C100.124 174.601 98.2692 172.959 96.1138 171.835C95.4342 171.482 94.7239 171.172 93.9952 170.923V170.291C93.9952 167.623 91.8154 165.459 89.1273 165.459C86.4391 165.459 84.2593 167.623 84.2593 170.291V170.917C82.8082 171.409 81.4488 172.127 80.2181 173.026C78.118 174.564 76.6423 176.619 75.8769 178.91C75.1176 181.189 75.0748 183.699 75.834 186.161C76.5933 188.629 78.0568 190.69 79.9793 192.167C81.9081 193.644 84.2839 194.531 86.88 194.634L90.9886 194.804C91.5091 194.823 91.9744 194.993 92.3357 195.273C92.7031 195.552 92.9848 195.959 93.1378 196.446C93.2909 196.938 93.2787 197.436 93.1317 197.886C92.9909 198.318 92.7031 198.713 92.2928 199.017C91.8458 199.345 91.3315 199.606 90.7804 199.789C90.2661 199.959 89.7089 200.05 89.1272 200.05C88.2271 200.05 87.3882 199.837 86.6657 199.46C85.882 199.053 85.2145 198.47 84.7247 197.765C83.2 195.577 80.1814 195.029 77.977 196.537C75.7727 198.05 75.2216 201.047 76.7401 203.235C78.13 205.223 79.9853 206.864 82.1407 207.988C82.8203 208.341 83.5306 208.651 84.2593 208.9V209.532C84.2593 212.2 86.4391 214.364 89.1272 214.364C91.8154 214.364 93.9952 212.201 93.9952 209.532V208.906C95.4463 208.414 96.8057 207.697 98.0364 206.797C100.13 205.259 101.612 203.205 102.378 200.913C103.137 198.634 103.18 196.124 102.42 193.662C101.661 191.194 100.198 189.134 98.2752 187.657C96.3463 186.18 93.9706 185.298 91.3745 185.189L87.2598 185.019C86.7393 185 86.2739 184.83 85.9127 184.551C85.5453 184.271 85.2636 183.864 85.1106 183.378C84.9575 182.885 84.9697 182.387 85.1167 181.937C85.2636 181.505 85.5453 181.11 85.9555 180.806C86.4025 180.478 86.9108 180.217 87.4679 180.035C87.9823 179.864 88.5395 179.773 89.1212 179.773C90.0213 179.773 90.8602 179.986 91.5827 180.363C92.3664 180.77 93.0339 181.354 93.5237 182.059C95.0484 184.247 98.067 184.794 100.271 183.286C102.488 181.773 103.039 178.776 101.514 176.588Z" fill="#1876F1"/>
</svg>
